<svg width="24" height="18" viewBox="0 0 24 18" fill="none" xmlns="http://www.w3.org/2000/svg">
<path d="M4.55957 14.5938H19.958L19.668 15.7539C19.4922 16.4805 19.1934 17.0254 18.7715 17.3887C18.3555 17.752 17.7725 17.9336 17.0225 17.9336H7.49512C6.73926 17.9336 6.15332 17.749 5.7373 17.3799C5.32129 17.0166 5.02539 16.4746 4.84961 15.7539L4.55957 14.5938ZM4.22559 13.2051L2.6084 6.63086L3.75098 6.15625L7.56543 8.90723C7.69434 9.00098 7.80273 9.03613 7.89062 9.0127C7.97852 8.98926 8.05469 8.92773 8.11914 8.82812L11.9072 3.22949L12.6104 3.23828L16.3809 8.82812C16.4512 8.93945 16.5361 9.00684 16.6357 9.03027C16.7354 9.04785 16.8496 9.0127 16.9785 8.9248L20.8545 6.12109L21.9004 6.68359L20.3008 13.2051H4.22559ZM2.95996 8.35352C2.55566 8.35352 2.18359 8.25391 1.84375 8.05469C1.50977 7.85547 1.24023 7.58887 1.03516 7.25488C0.835938 6.91504 0.736328 6.54004 0.736328 6.12988C0.736328 5.72559 0.835938 5.35645 1.03516 5.02246C1.23438 4.68848 1.50098 4.42188 1.83496 4.22266C2.1748 4.01758 2.5498 3.91504 2.95996 3.91504C3.36426 3.91504 3.7334 4.01758 4.06738 4.22266C4.40137 4.42188 4.66797 4.68848 4.86719 5.02246C5.06641 5.35645 5.16602 5.72559 5.16602 6.12988C5.16602 6.54004 5.06641 6.91504 4.86719 7.25488C4.66797 7.58887 4.40137 7.85547 4.06738 8.05469C3.7334 8.25391 3.36426 8.35352 2.95996 8.35352ZM12.2588 4.61816C11.8486 4.61816 11.4736 4.51855 11.1338 4.31934C10.7998 4.12012 10.5332 3.85352 10.334 3.51953C10.1348 3.17969 10.0352 2.80469 10.0352 2.39453C10.0352 1.99023 10.1348 1.62109 10.334 1.28711C10.5332 0.953125 10.7998 0.686523 11.1338 0.487305C11.4736 0.288086 11.8486 0.188477 12.2588 0.188477C12.6631 0.188477 13.0322 0.288086 13.3662 0.487305C13.7061 0.686523 13.9727 0.956055 14.166 1.2959C14.3652 1.62988 14.4648 1.99609 14.4648 2.39453C14.4648 2.80469 14.3652 3.17969 14.166 3.51953C13.9727 3.85352 13.7061 4.12012 13.3662 4.31934C13.0322 4.51855 12.6631 4.61816 12.2588 4.61816ZM21.54 8.35352C21.1299 8.35352 20.7578 8.25391 20.4238 8.05469C20.0898 7.85547 19.8232 7.58887 19.624 7.25488C19.4307 6.91504 19.334 6.54004 19.334 6.12988C19.334 5.72559 19.4307 5.35645 19.624 5.02246C19.8232 4.68848 20.0898 4.42188 20.4238 4.22266C20.7578 4.01758 21.1299 3.91504 21.54 3.91504C21.9502 3.91504 22.3223 4.01758 22.6562 4.22266C22.9961 4.42188 23.2656 4.68848 23.4648 5.02246C23.6641 5.35645 23.7637 5.72559 23.7637 6.12988C23.7637 6.54004 23.6611 6.91504 23.4561 7.25488C23.2568 7.58887 22.9873 7.85547 22.6475 8.05469C22.3135 8.25391 21.9443 8.35352 21.54 8.35352Z" fill="white"/>
</svg>
