<svg width="22" height="17" viewBox="0 0 22 17" fill="none" xmlns="http://www.w3.org/2000/svg">
<path d="M5.35742 4.50586L3.82812 8.23242H0.584961V3.31055C0.584961 1.42969 1.56934 0.462891 3.46777 0.462891H18.5234C20.4219 0.462891 21.4062 1.43848 21.4062 3.31055V8.23242H17.7676C17.3896 8.23242 17.1787 8.41699 17.0557 8.74219L16.4932 10.3242L14.5684 4.47949C14.3926 3.94336 13.5928 3.94336 13.3643 4.50586L11.835 8.23242H9.76074C9.37402 8.23242 9.17188 8.41699 9.04883 8.74219L8.48633 10.3242L6.56152 4.47949C6.38574 3.94336 5.58594 3.94336 5.35742 4.50586ZM3.46777 16.8633C1.56934 16.8633 0.584961 15.8877 0.584961 14.0156V9.49805H4.10059C4.61914 9.49805 4.8125 9.32227 4.95312 8.98828L5.95508 6.55371L7.88867 12.7588C8.05566 13.2949 8.91699 13.2861 9.09277 12.7324L10.1211 9.49805H12.2041C12.582 9.49805 12.7754 9.32227 12.916 8.98828L13.9619 6.54492L15.8955 12.7588C16.0625 13.2949 16.9238 13.2861 17.1084 12.7324L18.1279 9.49805H21.4062V14.0156C21.4062 15.8877 20.4219 16.8633 18.5234 16.8633H3.46777Z" fill="white"/>
</svg>
