<svg width="21" height="20" viewBox="0 0 21 20" fill="none" xmlns="http://www.w3.org/2000/svg">
<path d="M0.981445 11.9834V3.09766C0.981445 1.2168 1.96582 0.25 3.86426 0.25H12.6885C14.5869 0.25 15.5713 1.22559 15.5713 3.09766V3.21191H8.31152C5.70117 3.21191 4.14551 4.75879 4.14551 7.35156V14.8398H3.86426C1.94824 14.8398 0.981445 13.8467 0.981445 11.9834ZM8.31152 19.085C6.41309 19.085 5.42871 18.1094 5.42871 16.2373V7.35156C5.42871 5.4707 6.41309 4.49512 8.31152 4.49512H17.1357C19.0342 4.49512 20.0186 5.4707 20.0186 7.35156V16.2373C20.0186 18.1094 19.0342 19.085 17.1357 19.085H8.31152ZM9.25195 9.61914C9.94629 9.63672 10.5264 9.04785 10.5264 8.32715C10.5264 7.62402 9.94629 7.05273 9.25195 7.05273C8.53125 7.05273 7.95117 7.62402 7.95117 8.32715C7.95117 9.04785 8.53125 9.61035 9.25195 9.61914ZM16.1689 9.61914C16.8721 9.63672 17.4521 9.04785 17.4521 8.32715C17.4521 7.62402 16.8721 7.05273 16.1689 7.05273C15.457 7.05273 14.877 7.62402 14.877 8.32715C14.877 9.04785 15.457 9.61035 16.1689 9.61914ZM12.7061 13.0908C13.4092 13.0908 13.9893 12.5107 13.9893 11.79C13.9893 11.0957 13.4092 10.5244 12.7061 10.5244C11.9941 10.5244 11.4229 11.0869 11.4229 11.79C11.4229 12.5195 11.9941 13.0908 12.7061 13.0908ZM9.24316 16.5625C9.94629 16.5625 10.5264 15.9824 10.5264 15.2705C10.5264 14.5586 9.94629 13.9873 9.24316 13.9873C8.53125 13.9873 7.95996 14.5586 7.95996 15.2705C7.95996 15.9824 8.53125 16.5625 9.24316 16.5625ZM16.1689 16.5625C16.8721 16.5625 17.4521 15.9824 17.4521 15.2705C17.4521 14.5586 16.8721 13.9873 16.1689 13.9873C15.4658 13.9873 14.8945 14.5586 14.8945 15.2705C14.8945 15.9824 15.4658 16.5625 16.1689 16.5625Z" fill="white"/>
</svg>
