<svg width="20" height="19" viewBox="0 0 20 19" fill="none" xmlns="http://www.w3.org/2000/svg">
<path d="M9.19141 18.9883C8.66406 18.9883 8.27734 18.6807 8.16309 18.1709L7.72363 16.2988C7.41602 16.1934 7.12598 16.0791 6.8623 15.9561L5.23633 16.958C4.80566 17.2305 4.2959 17.1865 3.93555 16.8262L2.81055 15.7012C2.4502 15.3408 2.39746 14.8135 2.6875 14.3828L3.68066 12.7656C3.55762 12.4932 3.44336 12.2119 3.35547 11.9395L1.47461 11.4912C0.964844 11.377 0.657227 10.9902 0.657227 10.4717V8.88965C0.657227 8.37109 0.964844 7.98438 1.47461 7.87012L3.33789 7.42188C3.43457 7.10547 3.55762 6.82422 3.66309 6.58691L2.66992 4.93457C2.38867 4.49512 2.42383 4.00293 2.79297 3.63379L3.93555 2.50879C4.30469 2.16602 4.76172 2.11328 5.20117 2.35938L6.85352 3.37012C7.11719 3.23828 7.41602 3.12402 7.72363 3.01855L8.16309 1.14648C8.27734 0.62793 8.66406 0.320312 9.19141 0.320312H10.7998C11.3184 0.320312 11.7139 0.62793 11.8193 1.1377L12.2676 3.03613C12.584 3.1416 12.8652 3.25586 13.1201 3.37891L14.7812 2.35938C15.2207 2.11328 15.6777 2.1748 16.0469 2.50879L17.1895 3.63379C17.5586 4.00293 17.5938 4.49512 17.3125 4.93457L16.3193 6.58691C16.4248 6.82422 16.5479 7.10547 16.6533 7.42188L18.5166 7.87012C19.0264 7.98438 19.334 8.37109 19.334 8.88965V10.4717C19.334 10.9902 19.0264 11.377 18.5166 11.4912L16.6357 11.9395C16.5479 12.2119 16.4248 12.4932 16.3018 12.7656L17.2949 14.3828C17.585 14.8135 17.5322 15.3408 17.1719 15.7012L16.0469 16.8262C15.6865 17.1865 15.1855 17.2305 14.7549 16.958L13.1201 15.9561C12.8564 16.0791 12.5664 16.1934 12.2676 16.2988L11.8193 18.1709C11.7139 18.6807 11.3184 18.9883 10.7998 18.9883H9.19141ZM10 12.7305C11.6875 12.7305 13.0674 11.3418 13.0674 9.64551C13.0674 7.9668 11.6875 6.57812 10 6.57812C8.30371 6.57812 6.91504 7.9668 6.91504 9.64551C6.91504 11.3418 8.30371 12.7305 10 12.7305Z" fill="white"/>
</svg>
