<svg width="17" height="19" viewBox="0 0 17 19" fill="none" xmlns="http://www.w3.org/2000/svg">
<path d="M3.1875 18.6719C1.28906 18.6719 0.304688 17.6963 0.304688 15.8242V6.72754C0.304688 4.84668 1.28906 3.87988 3.1875 3.87988H4.62012C4.80469 2.02539 6.29004 0.636719 8.24121 0.636719C10.2012 0.636719 11.6865 2.0166 11.8623 3.87988H13.3037C15.1934 3.87988 16.1865 4.85547 16.1865 6.72754V15.8242C16.1865 17.6963 15.2021 18.6719 13.5234 18.6719H3.1875ZM8.24121 2.1748C7.2041 2.1748 6.44824 2.86035 6.29883 3.87988H10.1924C10.043 2.86035 9.28711 2.1748 8.24121 2.1748Z" fill="white"/>
</svg>
